<?xml version="1.0" encoding="UTF-8"?>
<svg version="1.1" xmlns="http://www.w3.org/2000/svg" width="249" height="71">
<path d="M0 0 C1.5631897 0.00785522 1.5631897 0.00785522 3.15795898 0.01586914 C4.28266602 0.0190918 5.40737305 0.02231445 6.56616211 0.02563477 C7.75016602 0.03401367 8.93416992 0.04239258 10.15405273 0.05102539 C11.34192383 0.05553711 12.52979492 0.06004883 13.75366211 0.06469727 C16.69967499 0.07652864 19.64558954 0.09301252 22.59155273 0.11352539 C22.59155273 2.42352539 22.59155273 4.73352539 22.59155273 7.11352539 C16.32155273 7.11352539 10.05155273 7.11352539 3.59155273 7.11352539 C3.59155273 11.73352539 3.59155273 16.35352539 3.59155273 21.11352539 C7.88155273 21.11352539 12.17155273 21.11352539 16.59155273 21.11352539 C16.59155273 23.42352539 16.59155273 25.73352539 16.59155273 28.11352539 C12.30155273 28.11352539 8.01155273 28.11352539 3.59155273 28.11352539 C3.59155273 32.73352539 3.59155273 37.35352539 3.59155273 42.11352539 C9.86155273 42.11352539 16.13155273 42.11352539 22.59155273 42.11352539 C22.59155273 44.09352539 22.59155273 46.07352539 22.59155273 48.11352539 C14.01155273 48.11352539 5.43155273 48.11352539 -3.40844727 48.11352539 C-3.4313513 41.43827135 -3.4512799 34.76315259 -3.46337891 28.08789062 C-3.46842052 25.81509948 -3.47525364 23.54231159 -3.48388672 21.26953125 C-3.49595987 18.01048988 -3.50167714 14.75149122 -3.50610352 11.49243164 C-3.5112648 10.4695253 -3.51642609 9.44661896 -3.52174377 8.39271545 C-3.52181931 7.45181564 -3.52189484 6.51091583 -3.52197266 5.54150391 C-3.52419327 4.70877457 -3.52641388 3.87604523 -3.52870178 3.01808167 C-3.34578302 0.12106717 -2.90590762 0.13697385 0 0 Z " fill="#262626" transform="translate(104.408447265625,5.886474609375)"/>
<path d="M0 0 C6.1565625 -0.0309375 6.1565625 -0.0309375 12.4375 -0.0625 C14.38160767 -0.07615601 14.38160767 -0.07615601 16.36499023 -0.09008789 C17.88394897 -0.09383423 17.88394897 -0.09383423 19.43359375 -0.09765625 C20.47572021 -0.10289307 21.51784668 -0.10812988 22.59155273 -0.11352539 C25 0 25 0 26 1 C26 2.98 26 4.96 26 7 C19.73 7 13.46 7 7 7 C7 11.62 7 16.24 7 21 C10.96 21 14.92 21 19 21 C19 23.31 19 25.62 19 28 C15.04 28 11.08 28 7 28 C7 32.62 7 37.24 7 42 C13.27 42 19.54 42 26 42 C26 43.98 26 45.96 26 48 C17.42 48 8.84 48 0 48 C0 32.16 0 16.32 0 0 Z " fill="#262626" transform="translate(163,6)"/>
<path d="M0 0 C6.1565625 -0.0309375 6.1565625 -0.0309375 12.4375 -0.0625 C14.38160767 -0.07615601 14.38160767 -0.07615601 16.36499023 -0.09008789 C17.88394897 -0.09383423 17.88394897 -0.09383423 19.43359375 -0.09765625 C20.47572021 -0.10289307 21.51784668 -0.10812988 22.59155273 -0.11352539 C25 0 25 0 26 1 C26 2.98 26 4.96 26 7 C19.73 7 13.46 7 7 7 C7 11.62 7 16.24 7 21 C10.96 21 14.92 21 19 21 C19 23.31 19 25.62 19 28 C15.04 28 11.08 28 7 28 C7 34.6 7 41.2 7 48 C4.69 48 2.38 48 0 48 C0 32.16 0 16.32 0 0 Z " fill="#262626" transform="translate(2,6)"/>
<path d="M0 0 C5.68092753 -0.3043354 11.08213509 -0.19497654 16 3 C20.04890824 8.30610349 19.52645466 13.60487042 19 20 C18 23.75 18 23.75 17 26 C17.66 26.66 18.32 27.32 19 28 C19.4704379 30.64258329 19.83755465 33.21259631 20.125 35.875 C20.21136719 36.59558594 20.29773438 37.31617188 20.38671875 38.05859375 C20.77486636 41.40405647 21 44.6275072 21 48 C18.69 48 16.38 48 14 48 C13.87882812 46.87980469 13.75765625 45.75960937 13.6328125 44.60546875 C13.46396733 43.13276364 13.29467303 41.66010996 13.125 40.1875 C13.04636719 39.44951172 12.96773437 38.71152344 12.88671875 37.95117188 C12.45539714 34.28493819 12.0803217 32.12048255 10 29 C7.57478506 28.41810734 7.57478506 28.41810734 4.875 28.3125 C3.96492188 28.24675781 3.05484375 28.18101563 2.1171875 28.11328125 C1.41851562 28.07589844 0.71984375 28.03851563 0 28 C0 26.02 0 24.04 0 22 C0.69867188 21.89042969 1.39734375 21.78085937 2.1171875 21.66796875 C3.02726562 21.50941406 3.93734375 21.35085937 4.875 21.1875 C5.77992187 21.03667969 6.68484375 20.88585937 7.6171875 20.73046875 C10.34412478 20.16948699 10.34412478 20.16948699 12 17 C12.06573798 14.1842234 11.54131918 11.79681576 11 9 C8.70370006 7.85185003 6.92301914 7.69230191 4.375 7.4375 C3.55773437 7.35371094 2.74046875 7.26992187 1.8984375 7.18359375 C1.27195312 7.12300781 0.64546875 7.06242188 0 7 C0 4.69 0 2.38 0 0 Z " fill="#262626" transform="translate(77,6)"/>
<path d="M0 0 C5.68092753 -0.3043354 11.08213509 -0.19497654 16 3 C20.03749939 8.29115217 19.55580378 13.61694101 19 20 C18.608125 21.11375 18.21625 22.2275 17.8125 23.375 C17.544375 24.24125 17.27625 25.1075 17 26 C17.4640625 26.87140625 17.928125 27.7428125 18.40625 28.640625 C20.33065256 32.69696372 20.54753234 35.95202194 20.6875 40.375 C20.73874023 41.47908203 20.73874023 41.47908203 20.79101562 42.60546875 C20.87272789 44.40313853 20.93805781 46.20154046 21 48 C18.69 48 16.38 48 14 48 C13.87882813 46.87980469 13.75765625 45.75960937 13.6328125 44.60546875 C13.46396733 43.13276364 13.29467303 41.66010996 13.125 40.1875 C13.04636719 39.44951172 12.96773437 38.71152344 12.88671875 37.95117188 C12.45539714 34.28493819 12.0803217 32.12048255 10 29 C7.57478506 28.41810734 7.57478506 28.41810734 4.875 28.3125 C3.96492187 28.24675781 3.05484375 28.18101563 2.1171875 28.11328125 C1.41851562 28.07589844 0.71984375 28.03851563 0 28 C0 26.02 0 24.04 0 22 C0.69867188 21.89042969 1.39734375 21.78085937 2.1171875 21.66796875 C3.02726563 21.50941406 3.93734375 21.35085937 4.875 21.1875 C5.77992188 21.03667969 6.68484375 20.88585937 7.6171875 20.73046875 C10.34412478 20.16948699 10.34412478 20.16948699 12 17 C12.06573798 14.1842234 11.54131918 11.79681576 11 9 C8.70370006 7.85185003 6.92301914 7.69230191 4.375 7.4375 C3.55773437 7.35371094 2.74046875 7.26992187 1.8984375 7.18359375 C1.27195313 7.12300781 0.64546875 7.06242188 0 7 C0 4.69 0 2.38 0 0 Z " fill="#262626" transform="translate(203,6)"/>
<path d="M0 0 C0 2.31 0 4.62 0 7 C-0.804375 7.28875 -1.60875 7.5775 -2.4375 7.875 C-5.1326468 8.73262568 -5.1326468 8.73262568 -6 11 C-6.08559118 13.17824961 -6.10713412 15.35915255 -6.09765625 17.5390625 C-6.09443359 18.84101563 -6.09121094 20.14296875 -6.08789062 21.484375 C-6.07953466 22.86458399 -6.07106971 24.24479232 -6.0625 25.625 C-6.05748501 27.01301926 -6.0529221 28.40104022 -6.04882812 29.7890625 C-6.03700976 33.19275132 -6.02053434 36.59635439 -6 40 C-4.02 40.66 -2.04 41.32 0 42 C0 44.31 0 46.62 0 49 C-5.876474 48.71334273 -9.06433135 46.08745753 -13 42 C-15.18420226 37.63159549 -14.26833515 31.78663604 -14.29516602 26.93408203 C-14.31232692 24.77180818 -14.35620542 22.61108493 -14.40039062 20.44921875 C-14.41052276 19.06511538 -14.41903723 17.68099903 -14.42578125 16.296875 C-14.44036377 15.04229492 -14.45494629 13.78771484 -14.4699707 12.49511719 C-13.91188075 8.34466741 -12.62182319 6.22877333 -10 3 C-6.24779819 0.65487387 -4.47038145 0 0 0 Z " fill="#262626" transform="translate(46,6)"/>
<path d="M0 0 C5.44533513 0.38895251 8.12686961 2.2148953 12 6 C15.40888312 11.24432453 14.32769419 17.86417668 14.3125 23.875 C14.32861328 25.14214844 14.34472656 26.40929687 14.36132812 27.71484375 C14.36197266 28.94074219 14.36261719 30.16664062 14.36328125 31.4296875 C14.36626221 32.54585449 14.36924316 33.66202148 14.37231445 34.81201172 C13.80981172 39.62851055 12.09838221 42.90161779 8.6875 46.3125 C5.71872918 48.17661191 3.46494363 48.67767966 0 49 C-0.3125 45.6875 -0.3125 45.6875 0 42 C2.4375 40.1875 2.4375 40.1875 5 39 C7.10668827 34.78662345 6.2293798 29.25423467 6.25 24.625 C6.270625 23.47515625 6.29125 22.3253125 6.3125 21.140625 C6.31765625 20.03460937 6.3228125 18.92859375 6.328125 17.7890625 C6.3374707 16.77537598 6.34681641 15.76168945 6.35644531 14.71728516 C5.94489287 11.5799025 5.20000719 10.24447131 3 8 C2.01 7.67 1.02 7.34 0 7 C0 4.69 0 2.38 0 0 Z " fill="#262626" transform="translate(49,6)"/>
<path d="M0 0 C2.31 0 4.62 0 7 0 C7 15.84 7 31.68 7 48 C4.69 48 2.38 48 0 48 C0 32.16 0 16.32 0 0 Z " fill="#262626" transform="translate(193,6)"/>
<path d="M0 0 C2.31 0 4.62 0 7 0 C7 15.84 7 31.68 7 48 C4.69 48 2.38 48 0 48 C0 32.16 0 16.32 0 0 Z " fill="#262626" transform="translate(67,6)"/>
<path d="M0 0 C2.31 0 4.62 0 7 0 C9.35537961 7.59927062 11.69564282 15.20300989 14.02099609 22.81152344 C14.8225627 25.42211192 15.63614993 28.02826564 16.45703125 30.6328125 C16.82183594 31.82648437 17.18664062 33.02015625 17.5625 34.25 C17.87316406 35.24515625 18.18382812 36.2403125 18.50390625 37.265625 C19.20830993 41.14816495 18.76703804 44.46592393 17 48 C15.10296631 47.76329041 15.10296631 47.76329041 13 47 C12.02545166 45.18482971 12.02545166 45.18482971 11.35253906 42.78735352 C11.09257141 41.89295059 10.83260376 40.99854767 10.5647583 40.07704163 C10.30104431 39.10415695 10.03733032 38.13127228 9.765625 37.12890625 C9.48273621 36.13624252 9.19984741 35.1435788 8.90838623 34.12083435 C8.00617276 30.93900839 7.12825024 27.75101365 6.25 24.5625 C5.64343647 22.41558861 5.03538222 20.26909778 4.42578125 18.12304688 C3.31840009 14.19844843 2.21331345 10.27332568 1.12988281 6.34204102 C0.91100403 5.55007828 0.69212524 4.75811554 0.46661377 3.94215393 C0 2 0 2 0 0 Z " fill="#262626" transform="translate(129,6)"/>
<path d="M0 0 C3.55247432 0.87379409 4.94828114 2.4927342 6.9375 5.4765625 C7.63597125 8.3162489 7.63597125 10.6368761 6.9375 13.4765625 C4.94828114 16.4603908 3.55247432 18.07933091 0 18.953125 C-3.92313492 19.23547183 -5.73362371 18.69581336 -9.0625 16.4765625 C-11.28175086 13.14768621 -11.82140933 11.33719742 -11.5390625 7.4140625 C-10.07519871 1.46261629 -5.59135555 -0.40240816 0 0 Z " fill="#C485A4" transform="translate(242.0625,35.5234375)"/>
<path d="M0 0 C2.31 0 4.62 0 7 0 C4.91969601 8.01091642 2.46670598 15.84967294 -0.1875 23.6875 C-0.55552734 24.78255859 -0.92355469 25.87761719 -1.30273438 27.00585938 C-2.19904876 29.67152163 -3.09817383 32.3361985 -4 35 C-4.66 35 -5.32 35 -6 35 C-9.83526464 26.2014517 -6.5995916 17.97201654 -3.4375 9.4375 C-3.10814453 8.52419922 -2.77878906 7.61089844 -2.43945312 6.66992188 C-1.63505629 4.44325818 -0.82183701 2.22027256 0 0 Z " fill="#262626" transform="translate(154,6)"/>
</svg>
